# xmcd CD database file
#
# Track frame offsets:
#	150
#	21594
#	44297
#	63735
#	87108
#	108834
#	127090
#	148082
#	162724
#	192434
#	213823
#	241532
#	264126
#
# Disc length: 4681 seconds
#
# Revision: 1
# Processed by: cddbd v1.5.2PL0 Copyright (c) Steve Scherf et al.
# Submitted via: CDex 1.51
#
DISCID=b812470d
DTITLE=Sybreed - The Pulse of Awakening
DYEAR=2010
DGENRE=Metal
TTITLE0=Nomenklatura
TTITLE1=A.E.O.N.
TTITLE2=Doomsday Party
TTITLE3=Human Black Box
TTITLE4=Kill Joy
TTITLE5=I Am Ultraviolence
TTITLE6=Electronegative
TTITLE7=In the Cold Light
TTITLE8=Lucifer Effect
TTITLE9=Love Like Blood
TTITLE10=Meridian A.D.
TTITLE11=Flesh Doll for Sale
TTITLE12=From Zero to Nothing
EXTD=YEAR: 2010
EXTT0=
EXTT1=
EXTT2=
EXTT3=
EXTT4=
EXTT5=
EXTT6=
EXTT7=
EXTT8=
EXTT9=
EXTT10=
EXTT11=
EXTT12=
PLAYORDER=
